<svg xmlns="http://www.w3.org/2000/svg" version="1.1" xmlns:xlink="http://www.w3.org/1999/xlink" width="1000" height="1000"><style>
    #light-icon {
      display: inline;
    }
    #dark-icon {
      display: none;
    }

    @media (prefers-color-scheme: dark) {
      #light-icon {
        display: none;
      }
      #dark-icon {
        display: inline;
      }
    }
  </style><g id="light-icon"><svg xmlns="http://www.w3.org/2000/svg" version="1.1" xmlns:xlink="http://www.w3.org/1999/xlink" width="1000" height="1000"><g clip-path="url(#SvgjsClipPath1079)"><rect width="1000" height="1000" fill="#ffffff"></rect><g transform="matrix(1.4326647564469914,0,0,1.4326647564469914,85.243553008596,0)"><svg xmlns="http://www.w3.org/2000/svg" version="1.1" xmlns:xlink="http://www.w3.org/1999/xlink" width="579" height="698"><svg xmlns="http://www.w3.org/2000/svg" version="1.0" viewBox="0 0 579 698"><path d="M254.5 181.5c-31.3 6-56 18.9-76.6 40.2-9.2 9.4-15 18.1-18.1 27.1-1.9 5.5-2.3 8.7-2.2 18.2 0 10.5.3 12.2 3.2 19.5 5.6 14.1 16.7 26.3 31.8 34.8 7.7 4.3 18.6 8.9 42.4 18 10.7 4.1 22 8.6 25 10.2 23.2 11.6 40.4 30.1 47.6 51 2.3 6.9 2.4 7 2.5 3 1.1-23.8-6.8-42.9-23-55.9-11.1-8.9-28.3-17.5-53.6-26.7-4.9-1.7-9.5-3.7-10.2-4.3-.9-.8-1-3.7-.2-12.1 1-11.2 3.7-29.6 4.4-30.3.2-.2 3.9.3 8.2 1.2 28.5 5.5 54.5 5.7 83.1.6 5.8-1.1 11-1.6 11.3-1.2.8.8 3.4 16.3 4.4 26l.7 6.2 7.1-6.2c4-3.4 7.4-6.4 7.6-6.5.3-.2-.4-5.6-1.4-12.1-1.1-6.4-2-12.1-2-12.5 0-.5 3.8-2.3 8.5-4.1 4.7-1.7 12.9-5.5 18.2-8.3 10.7-5.6 10.3-5.7 14.4 1.5 1 1.8 2.3 3.1 2.8 2.9 1.8-.6 5.7-9.6 6.3-14.5.5-4.4.2-5.1-4.3-11.2-6.5-8.9-21.3-23.3-30.9-30.1-15.7-11.1-29.2-17.3-49.5-22.6-8.3-2.2-12-2.6-30-2.9-14.3-.2-22.6.1-27.5 1.1m32.7 15.9c10.2 3.7 20.7 15.7 29.2 33.7 4.6 9.7 9.6 23.2 9.6 25.9 0 1-6.6 2.5-19.4 4.6-13 2-40.8 2-54.2 0-15-2.3-20.4-3.6-20.4-5 0-1.9 3.5-12 7-20.5 8.5-20.8 19.7-34.4 31.7-38.7 4.8-1.7 11.7-1.7 16.5 0m-49.8 6.8c-.4.7-2 3.1-3.4 5.3-4.6 6.8-10.7 19.7-14.4 30.6-2 5.7-3.8 11-4.1 11.7-.3.9-2 .6-6.7-1.2-7.8-2.9-22.4-10.2-23.3-11.6-.9-1.5 12.5-14.1 22.3-20.8 9.2-6.3 14.3-9.1 23.2-12.8 6.4-2.7 7.4-2.9 6.4-1.2m94.4 3.3c11.5 5.4 23.9 14 32.9 22.8 4.5 4.4 8 8.3 7.8 8.8-1.4 2.2-26.6 13.9-30 13.9-.2 0-.9-1.9-1.6-4.3-2.9-11.1-12.3-31.3-19.2-41.6l-3-4.4 2.9.7c1.6.4 6.2 2.2 10.2 4.1m-128.9 58.6 8.3 3.2-.6 3.6c-1 5.5-3.5 23.9-4.1 30.3-.4 3.2-1 5.8-1.5 5.8-1.9 0-16-10.2-19.8-14.4-2.2-2.4-5.6-7.3-7.4-10.8-3.1-6-3.3-6.9-3.3-16.8 0-15.2-.4-14.8 10.7-9 5.1 2.7 13.1 6.3 17.7 8.1"></path><path d="M404.5 266.8c-4.2 8.2-16 19.5-30.6 29.2-14.8 10-23.9 17.1-29.6 23.2-13.6 14.9-20.2 33.7-19 54.3 1 15.6.7 15.3 8.7 7.1l6.8-7.1 1.1-10.1c1.2-11.2 2.7-16.1 7.3-24.2 4.8-8.4 13.9-16.9 28.8-26.6 7.4-4.9 16.1-11.1 19.3-13.8 3.2-2.8 6-4.9 6.1-4.7.2.2 1.2 3.8 2.1 7.9 2.6 11 3.1 33.3 1.1 44-3.4 18.6-14.9 34.3-31.1 42.7-8 4.1-21.5 8.8-23.5 8.1-.6-.2 1.8-3.8 5.4-8 14.5-17.5 22.9-31.8 26.9-45.8 4.2-14.7 4.1-16.4-.2-7.8-6 12.1-14.1 22.5-33.2 42.4-20.7 21.5-26.8 30-37.6 52.4-10.4 21.5-14.6 28.4-22.2 36.4C279 479 268.7 485 247.5 492c-19.5 6.4-25.5 9.9-31.6 18.4-3.2 4.4-3.8 6.7-1.1 4.4 5.4-4.8 15.9-8.4 35.2-12.2 6.9-1.3 13.8-2.9 15.4-3.5 1.6-.7 3-1 3.2-.8s-1.2 3.3-3.2 7c-4 7.5-5.1 10.7-6.4 18.7-1.2 6.5.2 16.6 2.9 21.9l1.9 3.6.1-7.1c.1-10.2 4.4-21.8 11.4-30.9 5.9-7.5 19.6-22.6 20.4-22.3.4.2 1.8 3.2 3.1 6.8 7.7 21 8.5 26.3 5.7 35.5-2.3 7.8-.8 7.5 5.1-1.1l3.9-5.6v-10.7c0-5.8-.3-11.8-.8-13.3l-.7-2.7 8.2 4.2c7.5 3.7 9.1 4.1 17.3 4.5 7.1.3 9.9 0 13-1.3 3.1-1.4 3.6-1.9 2-2.2-14.6-2.6-22.1-6-30-13.4-4.9-4.7-8.7-10.7-9.9-15.9-.6-2.4-.2-2.6 9.6-5.8 56.1-17.9 96.3-69 101.8-129.2 2-21.8-2-46.4-11.1-67.4-2.1-4.9-4.2-9.3-4.6-9.7-.5-.5-2.1 1.7-3.8 4.9M383 403.6c0 1.6-6.8 9.9-14.2 17.2-10.7 10.6-22.7 19.2-35.3 25.3-10.6 5.2-12 5.6-11.2 3.6 6.8-15.9 14-31.4 15.3-32.8.9-1 3.8-2 7.2-2.4 9-1.1 23.1-5 30.2-8.3 6.8-3.2 8-3.6 8-2.6"></path><path d="M135.2 298c-3.3 6.9-10.3 21.4-15.5 32.2-5.3 10.9-9 19.8-8.4 19.8.7 0 5.9-1.1 11.6-2.5s10.6-2.4 10.8-2.2c.2.3.8 3.2 1.3 6.5 1.3 7.6 5.2 21.1 9 31 12.3 31.8 41.4 63.2 72.3 77.7 13.9 6.6 21 8.6 30.2 8.6 9.8 0 16.1-1.4 23.7-5.4 26.7-13.9 31.2-50.5 9.1-73.9-6.9-7.3-20.2-16.2-31.6-21.2-4.5-1.9-17-6.9-27.8-11-30.9-11.7-41-17.4-54.2-30.3-10.4-10.2-17.4-21.3-22.2-35.3l-2.3-6.5zm22.4 45.1c5.5 6.2 21.1 15.6 37.8 22.9l12.9 5.7 2.2 10.9c5.1 24.9 14.5 49.6 24 63 1.9 2.7 3.1 5 2.7 5.2-2 .6-19.3-7.6-27.2-12.9-18.4-12.4-30.4-24.9-41.5-43.4-9.7-16.1-18.8-43.5-17.6-52.8.2-1.5 4.9-.6 6.7 1.4m89.4 43.4c14.2 7.1 22.5 14.4 26.9 23.5 3.7 7.8 3.7 19.1 0 27.1-2.5 5.2-10 12.9-12.7 12.9-1.7 0-10.8-10.6-15.6-18.3-5.7-9.1-11.8-24.2-15.6-38.8-4.2-15.9-4.3-15.4 3.3-12.5 3.4 1.3 9.6 4 13.7 6.1"></path></svg></svg></g></g><defs><clipPath id="SvgjsClipPath1079"><rect width="1000" height="1000" x="0" y="0" rx="500" ry="500"></rect></clipPath></defs></svg></g><g id="dark-icon"><svg xmlns="http://www.w3.org/2000/svg" version="1.1" xmlns:xlink="http://www.w3.org/1999/xlink" width="1000" height="1000"><g clip-path="url(#SvgjsClipPath1080)"><rect width="1000" height="1000" fill="#ffffff"></rect><g transform="matrix(1.4326647564469914,0,0,1.4326647564469914,85.243553008596,0)"><svg xmlns="http://www.w3.org/2000/svg" version="1.1" xmlns:xlink="http://www.w3.org/1999/xlink" width="579" height="698"><svg xmlns="http://www.w3.org/2000/svg" version="1.0" viewBox="0 0 579 698"><path d="M254.5 181.5c-31.3 6-56 18.9-76.6 40.2-9.2 9.4-15 18.1-18.1 27.1-1.9 5.5-2.3 8.7-2.2 18.2 0 10.5.3 12.2 3.2 19.5 5.6 14.1 16.7 26.3 31.8 34.8 7.7 4.3 18.6 8.9 42.4 18 10.7 4.1 22 8.6 25 10.2 23.2 11.6 40.4 30.1 47.6 51 2.3 6.9 2.4 7 2.5 3 1.1-23.8-6.8-42.9-23-55.9-11.1-8.9-28.3-17.5-53.6-26.7-4.9-1.7-9.5-3.7-10.2-4.3-.9-.8-1-3.7-.2-12.1 1-11.2 3.7-29.6 4.4-30.3.2-.2 3.9.3 8.2 1.2 28.5 5.5 54.5 5.7 83.1.6 5.8-1.1 11-1.6 11.3-1.2.8.8 3.4 16.3 4.4 26l.7 6.2 7.1-6.2c4-3.4 7.4-6.4 7.6-6.5.3-.2-.4-5.6-1.4-12.1-1.1-6.4-2-12.1-2-12.5 0-.5 3.8-2.3 8.5-4.1 4.7-1.7 12.9-5.5 18.2-8.3 10.7-5.6 10.3-5.7 14.4 1.5 1 1.8 2.3 3.1 2.8 2.9 1.8-.6 5.7-9.6 6.3-14.5.5-4.4.2-5.1-4.3-11.2-6.5-8.9-21.3-23.3-30.9-30.1-15.7-11.1-29.2-17.3-49.5-22.6-8.3-2.2-12-2.6-30-2.9-14.3-.2-22.6.1-27.5 1.1m32.7 15.9c10.2 3.7 20.7 15.7 29.2 33.7 4.6 9.7 9.6 23.2 9.6 25.9 0 1-6.6 2.5-19.4 4.6-13 2-40.8 2-54.2 0-15-2.3-20.4-3.6-20.4-5 0-1.9 3.5-12 7-20.5 8.5-20.8 19.7-34.4 31.7-38.7 4.8-1.7 11.7-1.7 16.5 0m-49.8 6.8c-.4.7-2 3.1-3.4 5.3-4.6 6.8-10.7 19.7-14.4 30.6-2 5.7-3.8 11-4.1 11.7-.3.9-2 .6-6.7-1.2-7.8-2.9-22.4-10.2-23.3-11.6-.9-1.5 12.5-14.1 22.3-20.8 9.2-6.3 14.3-9.1 23.2-12.8 6.4-2.7 7.4-2.9 6.4-1.2m94.4 3.3c11.5 5.4 23.9 14 32.9 22.8 4.5 4.4 8 8.3 7.8 8.8-1.4 2.2-26.6 13.9-30 13.9-.2 0-.9-1.9-1.6-4.3-2.9-11.1-12.3-31.3-19.2-41.6l-3-4.4 2.9.7c1.6.4 6.2 2.2 10.2 4.1m-128.9 58.6 8.3 3.2-.6 3.6c-1 5.5-3.5 23.9-4.1 30.3-.4 3.2-1 5.8-1.5 5.8-1.9 0-16-10.2-19.8-14.4-2.2-2.4-5.6-7.3-7.4-10.8-3.1-6-3.3-6.9-3.3-16.8 0-15.2-.4-14.8 10.7-9 5.1 2.7 13.1 6.3 17.7 8.1"></path><path d="M404.5 266.8c-4.2 8.2-16 19.5-30.6 29.2-14.8 10-23.9 17.1-29.6 23.2-13.6 14.9-20.2 33.7-19 54.3 1 15.6.7 15.3 8.7 7.1l6.8-7.1 1.1-10.1c1.2-11.2 2.7-16.1 7.3-24.2 4.8-8.4 13.9-16.9 28.8-26.6 7.4-4.9 16.1-11.1 19.3-13.8 3.2-2.8 6-4.9 6.1-4.7.2.2 1.2 3.8 2.1 7.9 2.6 11 3.1 33.3 1.1 44-3.4 18.6-14.9 34.3-31.1 42.7-8 4.1-21.5 8.8-23.5 8.1-.6-.2 1.8-3.8 5.4-8 14.5-17.5 22.9-31.8 26.9-45.8 4.2-14.7 4.1-16.4-.2-7.8-6 12.1-14.1 22.5-33.2 42.4-20.7 21.5-26.8 30-37.6 52.4-10.4 21.5-14.6 28.4-22.2 36.4C279 479 268.7 485 247.5 492c-19.5 6.4-25.5 9.9-31.6 18.4-3.2 4.4-3.8 6.7-1.1 4.4 5.4-4.8 15.9-8.4 35.2-12.2 6.9-1.3 13.8-2.9 15.4-3.5 1.6-.7 3-1 3.2-.8s-1.2 3.3-3.2 7c-4 7.5-5.1 10.7-6.4 18.7-1.2 6.5.2 16.6 2.9 21.9l1.9 3.6.1-7.1c.1-10.2 4.4-21.8 11.4-30.9 5.9-7.5 19.6-22.6 20.4-22.3.4.2 1.8 3.2 3.1 6.8 7.7 21 8.5 26.3 5.7 35.5-2.3 7.8-.8 7.5 5.1-1.1l3.9-5.6v-10.7c0-5.8-.3-11.8-.8-13.3l-.7-2.7 8.2 4.2c7.5 3.7 9.1 4.1 17.3 4.5 7.1.3 9.9 0 13-1.3 3.1-1.4 3.6-1.9 2-2.2-14.6-2.6-22.1-6-30-13.4-4.9-4.7-8.7-10.7-9.9-15.9-.6-2.4-.2-2.6 9.6-5.8 56.1-17.9 96.3-69 101.8-129.2 2-21.8-2-46.4-11.1-67.4-2.1-4.9-4.2-9.3-4.6-9.7-.5-.5-2.1 1.7-3.8 4.9M383 403.6c0 1.6-6.8 9.9-14.2 17.2-10.7 10.6-22.7 19.2-35.3 25.3-10.6 5.2-12 5.6-11.2 3.6 6.8-15.9 14-31.4 15.3-32.8.9-1 3.8-2 7.2-2.4 9-1.1 23.1-5 30.2-8.3 6.8-3.2 8-3.6 8-2.6"></path><path d="M135.2 298c-3.3 6.9-10.3 21.4-15.5 32.2-5.3 10.9-9 19.8-8.4 19.8.7 0 5.9-1.1 11.6-2.5s10.6-2.4 10.8-2.2c.2.3.8 3.2 1.3 6.5 1.3 7.6 5.2 21.1 9 31 12.3 31.8 41.4 63.2 72.3 77.7 13.9 6.6 21 8.6 30.2 8.6 9.8 0 16.1-1.4 23.7-5.4 26.7-13.9 31.2-50.5 9.1-73.9-6.9-7.3-20.2-16.2-31.6-21.2-4.5-1.9-17-6.9-27.8-11-30.9-11.7-41-17.4-54.2-30.3-10.4-10.2-17.4-21.3-22.2-35.3l-2.3-6.5zm22.4 45.1c5.5 6.2 21.1 15.6 37.8 22.9l12.9 5.7 2.2 10.9c5.1 24.9 14.5 49.6 24 63 1.9 2.7 3.1 5 2.7 5.2-2 .6-19.3-7.6-27.2-12.9-18.4-12.4-30.4-24.9-41.5-43.4-9.7-16.1-18.8-43.5-17.6-52.8.2-1.5 4.9-.6 6.7 1.4m89.4 43.4c14.2 7.1 22.5 14.4 26.9 23.5 3.7 7.8 3.7 19.1 0 27.1-2.5 5.2-10 12.9-12.7 12.9-1.7 0-10.8-10.6-15.6-18.3-5.7-9.1-11.8-24.2-15.6-38.8-4.2-15.9-4.3-15.4 3.3-12.5 3.4 1.3 9.6 4 13.7 6.1"></path></svg></svg></g></g><defs><clipPath id="SvgjsClipPath1080"><rect width="1000" height="1000" x="0" y="0" rx="500" ry="500"></rect></clipPath></defs></svg></g></svg>